<svg width="63" height="50" viewBox="0 0 63 50" fill="none" xmlns="http://www.w3.org/2000/svg">
<g clip-path="url(#clip0_151_77)">
<path d="M12.9815 0C9.41525 0 6.77648 3.657 6.8946 7.62305C7.00794 11.4333 6.8607 16.3681 5.80032 20.3925C4.73676 24.4286 2.93803 26.9854 0 27.3137V31.0197C2.93803 31.348 4.73676 33.9047 5.80032 37.9409C6.8607 41.9653 7.00794 46.9 6.8946 50.7103C6.77648 54.6757 9.41525 58.3333 12.982 58.3333H49.5233C53.0895 58.3333 55.7278 54.6763 55.6096 50.7103C55.4963 46.9 55.6435 41.9653 56.7039 37.9409C57.768 33.9047 59.562 31.348 62.5 31.0197V27.3137C59.562 26.9854 57.768 24.4286 56.7039 20.3925C55.6435 16.3687 55.4963 11.4333 55.6096 7.62305C55.7278 3.65762 53.0895 0 49.5233 0H12.9809H12.9815ZM42.3729 35.9079C42.3729 41.3689 38.8962 44.6809 33.1266 44.6809H23.3051C22.72 44.6809 22.2458 44.1252 22.2458 43.4397V14.8936C22.2458 14.2082 22.72 13.6525 23.3051 13.6525H33.0704C37.8814 13.6525 41.0387 16.7057 41.0387 21.3934C41.0387 24.6837 38.9147 27.6295 36.2087 28.1452V28.3171C39.8925 28.7906 42.3729 31.7793 42.3729 35.9079ZM32.0556 17.5869H26.4555V26.8544H31.1721C34.8183 26.8544 36.8289 25.1342 36.8289 22.0593C36.8289 19.178 35.1001 17.5869 32.0556 17.5869ZM26.4555 30.5319V40.7452H32.2617C36.0577 40.7452 38.0689 38.9605 38.0689 35.6063C38.0689 32.2515 36.0016 30.5313 32.0175 30.5313H26.4555V30.5319Z" fill="#354C6C"/>
</g>
<defs>
<clipPath id="clip0_151_77">
<rect width="62.5" height="50" fill="white"/>
</clipPath>
</defs>
</svg>
