<svg width="43" height="50" viewBox="0 0 43 50" fill="none" xmlns="http://www.w3.org/2000/svg">
<path d="M21.242 50L3.87104 45.9841L0 9.82617H42.5361L38.661 45.9784L21.242 50Z" fill="#354C6C"/>
<path d="M35.3434 43.6764L38.655 12.7827H21.2681V46.9261L35.3434 43.6764Z" fill="#354C6C"/>
<path d="M8.87427 26.1931L9.35154 30.6277H21.268V26.1931H8.87427Z" fill="#EFFDFF"/>
<path d="M7.91528 17.2173L8.39935 21.652H21.268V17.2173H7.91528Z" fill="#EFFDFF"/>
<path d="M21.2682 37.7102L21.2448 37.7154L15.3143 36.3818L14.9351 32.845H9.5896L10.3356 39.808L21.2437 42.3297L21.2682 42.3241V37.7102Z" fill="#EFFDFF"/>
<path d="M10.0106 0H16.4602V2.24609H12.7077V4.49219H16.4602V6.73828H10.0106V0Z" fill="#354C6C"/>
<path d="M17.7501 0H24.1997V1.95313H20.4472V2.34375H24.1997V6.83594H17.7501V4.78516H21.5026V4.39453H17.7501V0Z" fill="#354C6C"/>
<path d="M25.4896 0H31.9392V1.95313H28.1867V2.34375H31.9392V6.83594H25.4896V4.78516H29.2421V4.39453H25.4896V0Z" fill="#354C6C"/>
<path d="M33.6278 26.1931L34.5892 17.2173H21.2498V21.652H28.7533L28.2688 26.1931H21.2498V30.6276H27.807L27.1889 36.379L21.2498 37.714V42.3276L32.1665 39.808L32.2465 39.0588L33.4979 27.3839L33.6278 26.1931Z" fill="#EFFDFF"/>
</svg>
