<svg width="34" height="50" viewBox="0 0 34 50" fill="none" xmlns="http://www.w3.org/2000/svg">
<g clip-path="url(#clip0_161_6)">
<path d="M8.33333 50C12.9333 50 16.6667 46.2666 16.6667 41.6666V33.3333H8.33333C3.73333 33.3333 0 37.0666 0 41.6666C0 46.2666 3.73333 50 8.33333 50Z" fill="#354C6C"/>
<path d="M0 25C0 20.4 3.73333 16.6667 8.33333 16.6667H16.6667V33.3334H8.33333C3.73333 33.3334 0 29.6 0 25Z" fill="#354C6C"/>
<path d="M0 8.33333C0 3.73333 3.73333 0 8.33333 0H16.6667V16.6667H8.33333C3.73333 16.6667 0 12.9333 0 8.33333Z" fill="#354C6C"/>
<path d="M16.6667 0H25C29.6 0 33.3334 3.73333 33.3334 8.33333C33.3334 12.9333 29.6 16.6667 25 16.6667H16.6667V0Z" fill="#354C6C"/>
<path d="M33.3334 25C33.3334 29.6 29.6 33.3334 25 33.3334C20.4 33.3334 16.6667 29.6 16.6667 25C16.6667 20.4 20.4 16.6667 25 16.6667C29.6 16.6667 33.3334 20.4 33.3334 25Z" fill="#354C6C"/>
</g>
<defs>
<clipPath id="clip0_161_6">
<rect width="33.3333" height="50" fill="white"/>
</clipPath>
</defs>
</svg>
