<svg width="40" height="39" viewBox="0 0 40 39" fill="none" xmlns="http://www.w3.org/2000/svg">
<path d="M18.3162 5.10403C11.4022 5.85556 5.84093 11.4168 5.0894 18.1805C4.33788 25.2448 8.3961 31.5576 14.5586 33.9625C15.0095 34.1128 15.4604 33.8122 15.4604 33.211V30.8061C15.4604 30.8061 14.8592 30.9564 14.1077 30.9564C12.0034 30.9564 11.1016 29.1528 10.9513 28.1006C10.801 27.4994 10.5004 27.0485 10.0495 26.5976C9.59854 26.4473 9.44823 26.4473 9.44823 26.297C9.44823 25.9964 9.89915 25.9964 10.0495 25.9964C10.9513 25.9964 11.7028 27.0485 12.0034 27.4994C12.7549 28.7018 13.6568 29.0024 14.1077 29.0024C14.7089 29.0024 15.1598 28.8521 15.4604 28.7018C15.6107 27.6497 16.0616 26.5976 16.9635 25.9964C13.5065 25.2448 10.9513 23.2909 10.9513 19.9842C10.9513 18.3308 11.7028 16.6775 12.7549 15.475C12.6046 15.1744 12.4543 14.4229 12.4543 13.3708C12.4543 12.7696 12.4543 11.8677 12.9052 10.9659C12.9052 10.9659 15.0095 10.9659 17.1138 12.9199C17.8653 12.6193 18.9174 12.469 19.9695 12.469C21.0217 12.469 22.0738 12.6193 22.9756 12.9199C24.9296 10.9659 27.1842 10.9659 27.1842 10.9659C27.4848 11.8677 27.4848 12.7696 27.4848 13.3708C27.4848 14.5732 27.3345 15.1744 27.1842 15.475C28.2363 16.6775 28.9878 18.1805 28.9878 19.9842C28.9878 23.2909 26.4326 25.2448 22.9756 25.9964C23.8775 26.7479 24.4787 28.1006 24.4787 29.4534V33.3613C24.4787 33.8122 24.9296 34.2631 25.5308 34.1128C31.0921 31.8582 35 26.4473 35 20.1345C35 11.1162 27.3345 4.0519 18.3162 5.10403Z" fill="#06B6D4"/>
</svg>
