<svg width="38" height="50" viewBox="0 0 38 50" fill="none" xmlns="http://www.w3.org/2000/svg">
<path d="M37.1588 9.82617L33.7736 45.9784L18.5567 50L3.38168 45.9841L0 9.82617H37.1588Z" fill="#354C6C"/>
<path d="M18.5794 46.926L30.8754 43.6763L33.7683 12.7826H18.5794V46.926Z" fill="#354C6C"/>
<path d="M11.9986 21.652H18.5794V17.2173H6.91467L7.02603 18.407L8.16937 30.6276H18.5794V26.1931H12.4237L11.9986 21.652Z" fill="#EFFDFF"/>
<path d="M13.047 32.845H8.37723L9.02896 39.808L18.558 42.3298L18.5794 42.3241V37.7103L18.559 37.7154L13.3782 36.3818L13.047 32.845Z" fill="#EFFDFF"/>
<path d="M3.45728 0H5.82131V2.22656H7.98384V0H10.348V6.74258H7.98394V4.48477H5.82141V6.74258H3.45738V0H3.45728Z" fill="#354C6C"/>
<path d="M13.4567 2.23594H11.3755V0H17.9031V2.23594H15.821V6.74258H13.4568V2.23594H13.4567Z" fill="#354C6C"/>
<path d="M18.9391 0H21.4041L22.9205 2.36914L24.4353 0H26.9012V6.74258H24.5469V3.40059L22.9205 5.79795H22.8798L21.2522 3.40059V6.74258H18.9391V0Z" fill="#354C6C"/>
<path d="M28.0778 0H30.4425V4.51387H33.767V6.74258H28.0778V0Z" fill="#354C6C"/>
<path d="M18.5633 30.6276H24.2916L23.7517 36.379L18.5633 37.7139V42.3276L28.1 39.808L28.1699 39.0588L29.2631 27.3839L29.3766 26.1931H18.5633V30.6276Z" fill="#EFFDFF"/>
<path d="M18.5633 21.6411V21.652H29.7999L29.8932 20.6552L30.1051 18.407L30.2164 17.2173H18.5633V21.6411Z" fill="#EFFDFF"/>
</svg>
