<svg width="36" height="37" viewBox="0 0 36 37" fill="none" xmlns="http://www.w3.org/2000/svg">
<path d="M11.3333 3C6.73833 3 3 6.73833 3 11.3333V24.6667C3 29.2617 6.73833 33 11.3333 33H24.6667C29.2617 33 33 29.2617 33 24.6667V11.3333C33 6.73833 29.2617 3 24.6667 3H11.3333ZM11.3333 6.33333H24.6667C27.4233 6.33333 29.6667 8.57667 29.6667 11.3333V24.6667C29.6667 27.4233 27.4233 29.6667 24.6667 29.6667H11.3333C8.57667 29.6667 6.33333 27.4233 6.33333 24.6667V11.3333C6.33333 8.57667 8.57667 6.33333 11.3333 6.33333ZM26.3333 8C25.8913 8 25.4674 8.17559 25.1548 8.48816C24.8423 8.80072 24.6667 9.22464 24.6667 9.66667C24.6667 10.1087 24.8423 10.5326 25.1548 10.8452C25.4674 11.1577 25.8913 11.3333 26.3333 11.3333C26.7754 11.3333 27.1993 11.1577 27.5118 10.8452C27.8244 10.5326 28 10.1087 28 9.66667C28 9.22464 27.8244 8.80072 27.5118 8.48816C27.1993 8.17559 26.7754 8 26.3333 8ZM18 9.66667C13.405 9.66667 9.66667 13.405 9.66667 18C9.66667 22.595 13.405 26.3333 18 26.3333C22.595 26.3333 26.3333 22.595 26.3333 18C26.3333 13.405 22.595 9.66667 18 9.66667ZM18 13C20.7567 13 23 15.2433 23 18C23 20.7567 20.7567 23 18 23C15.2433 23 13 20.7567 13 18C13 15.2433 15.2433 13 18 13Z" fill="#06B6D4"/>
</svg>
