<svg width="58" height="50" viewBox="0 0 58 50" fill="none" xmlns="http://www.w3.org/2000/svg">
<g clip-path="url(#clip0_151_91)">
<path d="M0 0H58V50H0V0Z" fill="#354C6C"/>
<path d="M15.2503 41.7836L19.6889 39.468C20.5452 40.7768 21.3241 41.8842 23.1926 41.8842C24.9836 41.8842 26.1127 41.2802 26.1127 38.931V22.9548H31.5633V38.9975C31.5633 43.8641 28.2541 46.0793 23.4262 46.0793C19.066 46.0793 16.535 44.1325 15.2502 41.7832" fill="#EFFDFF"/>
<path d="M34.5238 41.2802L38.9618 39.065C40.1301 40.7098 41.6485 41.918 44.3347 41.918C46.5931 41.918 48.0333 40.9446 48.0333 39.602C48.0333 37.991 46.5539 37.4203 44.0621 36.4809L42.6999 35.9771C38.7674 34.5342 36.1588 32.7218 36.1588 28.8955C36.1588 25.3714 39.2734 22.6862 44.1402 22.6862C47.6053 22.6862 50.097 23.7268 51.8877 26.4454L47.644 28.7947C46.7095 27.3516 45.6976 26.7811 44.1403 26.7811C42.544 26.7811 41.5317 27.6538 41.5317 28.7947C41.5317 30.2044 42.544 30.7751 44.8797 31.6478L46.2423 32.1512C50.8754 33.863 53.484 35.6081 53.484 39.5349C53.484 43.7641 49.6297 46.0797 44.4517 46.0797C39.3904 46.0797 36.1199 43.9989 34.5239 41.2802" fill="#EFFDFF"/>
</g>
<defs>
<clipPath id="clip0_151_91">
<rect width="57.6565" height="50" fill="white"/>
</clipPath>
</defs>
</svg>
