<svg width="36" height="37" viewBox="0 0 36 37" fill="none" xmlns="http://www.w3.org/2000/svg">
<path d="M6.33333 3C4.49167 3 3 4.49167 3 6.33333V29.6667C3 31.5083 4.49167 33 6.33333 33H29.6667C31.5083 33 33 31.5083 33 29.6667V6.33333C33 4.49167 31.5083 3 29.6667 3H6.33333ZM6.33333 6.33333H29.6667V29.6667H6.33333V6.33333ZM10.9655 8.52734C9.53716 8.52734 8.68034 9.38596 8.68034 10.5293C8.68034 11.6726 9.53727 12.528 10.8223 12.528C12.2506 12.528 13.1074 11.6726 13.1074 10.5293C13.1074 9.38596 12.2505 8.52734 10.9655 8.52734ZM8.79427 14.6667V26.3333H13V14.6667H8.79427ZM16.4701 14.6667V26.3333H20.6758V19.9564C20.6758 18.058 22.0302 17.7852 22.4368 17.7852C22.8435 17.7852 23.931 18.193 23.931 19.9564V26.3333H28V19.9564C28 16.2947 26.3729 14.6667 24.3379 14.6667C22.3029 14.6667 21.2174 15.3443 20.6758 16.2943V14.6667H16.4701Z" fill="#06B6D4"/>
</svg>
