<svg width="67" height="51" viewBox="0 0 67 51" fill="none" xmlns="http://www.w3.org/2000/svg">
<path d="M54.5511 16.8213C53.8628 16.6206 53.1497 16.4308 52.4153 16.2512C52.536 15.834 52.6468 15.4222 52.7453 15.0173C54.362 8.36996 53.305 3.01479 49.6953 1.25164C46.2341 -0.438986 40.5735 1.32376 34.8566 5.53788C34.3069 5.9431 33.7556 6.37214 33.2046 6.82178C32.8374 6.52428 32.4708 6.23679 32.1052 5.96181C26.1137 1.4558 20.1082 -0.443088 16.5021 1.32516C13.0442 3.02069 12.0201 8.05506 13.4755 14.3548C13.616 14.9633 13.7803 15.5847 13.966 16.2165C13.1161 16.4209 12.2955 16.6387 11.5104 16.8705C4.48607 18.9449 0 22.1959 0 25.568C0 29.0508 4.8158 32.5441 12.1322 34.6622C12.7096 34.8294 13.3087 34.9875 13.9261 35.1375C13.7257 35.8208 13.5514 36.4904 13.4051 37.1435C12.0174 43.334 13.1011 48.2494 16.5498 49.9342C20.112 51.6742 26.0903 49.8857 31.9117 45.5756C32.3718 45.2348 32.8336 44.8735 33.2962 44.4948C33.8958 44.9839 34.4944 45.4467 35.0899 45.8808C40.7286 49.9908 46.2977 51.6504 49.7432 49.9609C53.3019 48.216 54.4584 42.9356 52.9569 36.5112C52.8422 36.0206 52.7088 35.5193 52.5589 35.0092C52.9788 34.904 53.3909 34.7955 53.7928 34.6827C61.3989 32.5481 66.3477 29.0973 66.3477 25.568C66.3477 22.1837 61.717 18.9107 54.5511 16.8213ZM52.9014 32.4038C52.5386 32.5056 52.1664 32.6039 51.787 32.6992C50.9474 30.4476 49.8141 28.0534 48.4273 25.5797C49.7507 23.165 50.8401 20.8013 51.6563 18.5643C52.335 18.7307 52.9938 18.9061 53.6285 19.0913C59.7682 20.8816 63.5133 23.5285 63.5133 25.568C63.5133 27.7405 59.4687 30.5607 52.9014 32.4038ZM50.1764 36.9775C50.8404 39.8183 50.9352 42.3867 50.4954 44.3945C50.1002 46.1986 49.3056 47.4015 48.323 47.8833C46.2321 48.9084 41.7606 47.5759 36.9383 44.061C36.3855 43.6581 35.8287 43.2278 35.2701 42.7725C37.1396 41.0406 39.008 39.0273 40.8316 36.7913C44.039 36.5502 47.0693 36.1561 49.8173 35.618C49.9526 36.0805 50.0728 36.534 50.1764 36.9775ZM22.6194 47.7061C20.5766 48.3172 18.9495 48.3347 17.966 47.8544C15.8732 46.8319 15.0032 42.8853 16.1899 37.5913C16.3259 36.985 16.4877 36.3622 16.6741 35.7256C19.392 36.2346 22.4001 36.601 25.6152 36.8217C27.4511 39.0097 29.3735 41.0208 31.3107 42.7818C30.8875 43.1279 30.4659 43.4574 30.0466 43.7679C27.4724 45.6738 24.8928 47.026 22.6194 47.7061ZM13.0489 32.3905C9.81371 31.454 7.14198 30.2367 5.31063 28.9084C3.66505 27.7147 2.83423 26.5296 2.83423 25.568C2.83423 23.5217 6.4361 20.9116 12.4434 19.1375C13.1723 18.9222 13.9353 18.7194 14.7272 18.5288C15.5574 20.8163 16.6465 23.208 17.9608 25.6264C16.6295 28.0808 15.5249 30.5106 14.6865 32.8249C14.122 32.6874 13.5751 32.5428 13.0489 32.3905ZM16.257 13.8938C15.0101 8.4963 15.8382 4.42463 17.9221 3.40291C20.1417 2.31447 25.05 3.86636 30.2232 7.75707C30.5538 8.00574 30.8858 8.26603 31.2187 8.53531C29.291 10.2886 27.3862 12.2846 25.5667 14.4597C22.4463 14.7046 19.4594 15.0982 16.7131 15.6251C16.5405 15.0368 16.3875 14.4589 16.257 13.8938ZM44.8764 19.8795C44.2199 18.919 43.5459 17.9813 42.8588 17.0691C44.9757 17.2957 47.004 17.5966 48.9086 17.9648C48.3368 19.5171 47.6241 21.1401 46.7851 22.804C46.1833 21.8362 45.5467 20.8603 44.8764 19.8795ZM33.2055 10.251C34.5128 11.4507 35.8221 12.7901 37.1098 14.2434C35.8122 14.1915 34.4984 14.1645 33.1738 14.1645C31.8618 14.1645 30.5577 14.1909 29.2681 14.2419C30.5571 12.8021 31.8777 11.4645 33.2055 10.251ZM21.4598 19.8961C20.804 20.8593 20.1793 21.8299 19.5869 22.8022C18.7615 21.1441 18.0554 19.5137 17.4786 17.9394C19.3716 17.5806 21.3903 17.2872 23.4937 17.0649C22.7969 17.9855 22.1174 18.9301 21.4598 19.8959V19.8961ZM23.5543 34.2424C21.3811 34.0371 19.3321 33.7588 17.4395 33.4099C18.0255 31.8075 18.7472 30.1422 19.5901 28.4485C20.184 29.4201 20.8112 30.391 21.471 31.3563H21.4712C22.1433 32.3397 22.8396 33.303 23.5543 34.2424ZM33.2839 41.0542C31.9406 39.8266 30.6006 38.4685 29.292 37.0078C30.5623 37.05 31.8575 37.0716 33.1738 37.0716C34.5262 37.0716 35.8631 37.0458 37.1789 36.9962C35.8869 38.4832 34.5824 39.8434 33.2839 41.0542ZM46.8122 28.3622C47.699 30.0742 48.4465 31.7307 49.0401 33.3058C47.1164 33.6775 45.0394 33.9769 42.851 34.1994C43.5398 33.2749 44.2197 32.321 44.8878 31.3398C45.5636 30.3471 46.2054 29.3529 46.8122 28.3622ZM42.4326 30.1404C41.3955 31.6636 40.3307 33.1177 39.2498 34.4902C37.2809 34.6094 35.2469 34.6709 33.1738 34.6709C31.1091 34.6709 29.1008 34.6165 27.1668 34.5102C26.0423 33.1197 24.9543 31.6613 23.9238 30.1535H23.9241C22.8962 28.6499 21.9503 27.1335 21.0931 25.6256C21.95 24.1143 22.8935 22.5962 23.9154 21.0952L23.9152 21.0955C24.9398 19.5906 26.0182 18.1393 27.1323 16.7575C29.1055 16.6311 31.1289 16.5652 33.1737 16.5652H33.1738C35.2279 16.5652 37.2539 16.6316 39.2265 16.7591C40.3236 18.1308 41.3946 19.5773 42.4233 21.0825C43.4636 22.6046 44.4193 24.1126 45.2835 25.5915C44.4219 27.0959 43.4683 28.6191 42.4326 30.1404ZM48.2795 3.33149C50.5013 4.41673 51.3653 8.79349 49.9694 14.5328C49.8803 14.899 49.7801 15.272 49.6712 15.65C46.9186 15.1121 43.9295 14.7117 40.8 14.4631C38.9769 12.2641 37.0877 10.2649 35.1914 8.53421C35.7013 8.11878 36.2104 7.72266 36.7174 7.34884C41.6156 3.73821 46.1937 2.31267 48.2795 3.33149ZM33.1738 20.5498C36.4459 20.5498 39.0985 22.7965 39.0985 25.568C39.0985 28.3395 36.4459 30.5863 33.1738 30.5863C29.9018 30.5863 27.2492 28.3395 27.2492 25.568C27.2492 22.7965 29.9018 20.5498 33.1738 20.5498Z" fill="#354C6C"/>
</svg>
