<svg width="53" height="50" viewBox="0 0 53 50" fill="none" xmlns="http://www.w3.org/2000/svg">
<path d="M36.4931 34.9196C38.4367 34.7185 39.9112 33.0429 39.8441 31.0322C39.7771 29.0214 38.1016 27.4129 36.0909 27.4129H35.9569C33.8792 27.4799 32.2707 29.2225 32.3377 31.3003C32.4047 32.3056 32.8069 33.1769 33.4101 33.7802C31.1313 38.2708 27.6462 41.555 22.4185 44.3029C18.8664 46.1796 15.1802 46.8499 11.494 46.3807C8.47799 45.9786 6.13223 44.6381 4.65775 42.4263C2.51306 39.1421 2.312 35.5898 4.12158 32.0375C5.39499 29.4906 7.40564 27.6139 8.67906 26.6756C8.41097 25.8043 8.00884 24.3298 7.80777 23.2574C-1.91037 30.2949 -0.905045 39.8123 2.04391 44.3029C4.25562 47.6542 8.74608 49.7319 13.7057 49.7319C15.0461 49.7319 16.3865 49.5979 17.727 49.2627C26.3058 47.5871 32.8069 42.4933 36.4931 34.9196ZM48.2889 26.6086C43.1952 20.6434 35.6888 17.3592 27.11 17.3592H26.0377C25.4345 16.1528 24.1611 15.3485 22.7536 15.3485H22.6196C20.5419 15.4155 18.9334 17.1582 19.0004 19.2359C19.0674 21.2466 20.743 22.8552 22.7536 22.8552H22.8877C24.3621 22.7882 25.6355 21.8499 26.1717 20.5764H27.3781C32.4718 20.5764 37.2973 22.0509 41.6537 24.933C45.0048 27.1448 47.4176 30.0268 48.758 33.5121C49.8974 36.3271 49.8304 39.0751 48.624 41.4209C46.7474 44.9732 43.5974 46.9169 39.442 46.9169C36.7611 46.9169 34.2143 46.1126 32.8739 45.5094C32.1366 46.1796 30.7962 47.252 29.8579 47.9223C32.7398 49.2627 35.6888 50 38.5037 50C44.9378 50 49.6963 46.4477 51.5059 42.8954C53.4495 39.008 53.3155 32.3056 48.2889 26.6086ZM14.2419 36.059C14.3089 38.0697 15.9844 39.6783 17.9951 39.6783H18.1291C20.2068 39.6113 21.8153 37.8686 21.7483 35.7909C21.6813 33.7802 20.0057 32.1716 17.9951 32.1716H17.861C17.727 32.1716 17.5259 32.1716 17.3919 32.2386C14.644 27.681 13.5046 22.7212 13.9067 17.3592C14.1748 13.3378 15.5153 9.85255 17.861 6.97051C19.8047 4.49062 23.5579 3.28418 26.1047 3.21716C33.209 3.08311 36.225 11.9303 36.426 15.4826C37.2973 15.6836 38.7718 16.1528 39.7771 16.4879C38.9729 5.63003 32.2707 0 25.8366 0C19.8047 0 14.2419 4.35657 12.0301 10.7909C8.94714 19.37 10.9578 27.6139 14.711 34.1153C14.3759 34.5845 14.1748 35.3217 14.2419 36.059Z" fill="#354C6C"/>
</svg>
