<svg width="79" height="51" viewBox="0 0 79 51" fill="none" xmlns="http://www.w3.org/2000/svg">
<path d="M67.8479 28.82C65.0991 28.8321 62.71 29.3923 60.7095 30.2204C59.9755 28.9904 59.2415 27.8944 59.112 27.0907C58.968 26.153 58.7953 25.5806 58.968 24.4603C59.1407 23.3399 59.9179 21.7446 59.9035 21.6228C59.8891 21.501 59.7308 20.9287 58.1477 20.9165C56.5646 20.9043 55.1973 21.1722 55.039 21.5254C54.8807 21.8786 54.5785 22.6823 54.377 23.5104C54.1035 24.7282 51.2107 29.0757 49.5556 31.353C49.0231 30.464 48.5626 29.6846 48.4618 29.0635C48.3179 28.1258 48.1452 27.5535 48.3179 26.4331C48.4906 25.3127 49.2678 23.7174 49.2534 23.5956C49.239 23.4739 49.0807 22.9015 47.4976 22.8893C45.9144 22.8771 44.5472 23.1451 44.3889 23.4982C44.2306 23.8514 44.0579 24.6795 43.7269 25.4832C43.3958 26.2869 39.5532 33.545 38.5457 35.4204C38.0276 36.3824 37.5814 37.1496 37.2648 37.6733C37.2648 37.6733 37.2504 37.7098 37.2072 37.7707C36.9338 38.2213 36.7755 38.4648 36.7755 38.4648C36.7755 38.4648 36.7755 38.4648 36.7755 38.477C36.5596 38.8058 36.3293 39.1103 36.2142 39.1103C36.1278 39.1103 35.9695 38.2335 36.243 37.04C36.8187 34.5192 38.1859 30.5979 38.1715 30.464C38.1715 30.3909 38.4306 29.7089 37.2792 29.3558C36.1566 29.0026 35.7536 29.5872 35.6529 29.5872C35.5522 29.5872 35.4802 29.7942 35.4802 29.7942C35.4802 29.7942 36.7323 25.3858 33.0911 25.3858C30.8172 25.3858 27.6797 27.4926 26.1254 29.3923C25.1467 29.8429 23.0599 30.8049 20.8291 31.8401C19.98 32.2419 19.102 32.6438 18.2817 33.0213C18.2241 32.9726 18.1666 32.9117 18.109 32.863C13.705 28.8808 5.55911 26.0677 5.90452 20.7217C6.03405 18.7732 6.82561 13.6585 21.5487 7.44774C33.6668 2.39392 43.3095 3.79437 44.979 6.89974C47.368 11.3325 39.8122 19.5648 27.2911 20.7582C22.513 21.2088 20.0087 19.65 19.3755 19.0655C18.7135 18.4566 18.6127 18.42 18.368 18.5418C17.9651 18.7245 18.2241 19.2725 18.368 19.5891C18.7422 20.4172 20.2822 21.8786 22.8871 22.597C25.1899 23.2303 30.7884 23.5835 37.567 21.3671C45.1517 18.8828 51.0812 11.9779 49.3398 6.19342C47.5983 0.323674 36.0847 -1.61261 25.1899 1.66324C18.7134 3.61171 11.6901 6.68054 6.63851 10.6749C0.637024 15.4243 -0.312852 19.5526 0.0757338 21.2818C1.47176 27.4195 11.4742 31.4138 15.4752 34.3731C15.2737 34.4705 15.0867 34.5557 14.9283 34.6288C12.9278 35.4691 5.30005 38.8424 3.4003 42.4105C1.24149 46.4535 3.74571 49.3519 5.4008 49.7416C10.5388 50.9472 15.8206 48.7795 18.6559 45.1992C21.4911 41.6189 21.1457 36.967 19.836 34.8358C19.8216 34.8115 19.8072 34.7871 19.7785 34.7628C20.2966 34.507 20.8291 34.2391 21.3472 33.9834C22.369 33.4719 23.3765 32.997 24.24 32.6073C23.7507 33.7398 23.3909 35.0916 23.2182 37.04C23.0023 39.3295 24.1105 42.3009 25.5641 43.47C26.2117 43.9814 26.9745 43.9936 27.4638 43.9936C29.1621 43.9936 29.9249 42.8002 30.774 41.3875C31.8102 39.6583 32.7457 37.6489 32.7457 37.6489C32.7457 37.6489 31.58 43.0803 34.7462 43.0803C35.8976 43.0803 37.0633 41.8138 37.5814 41.1683V41.1805C37.5814 41.1805 37.6102 41.144 37.6678 41.0587C37.7829 40.9004 37.8549 40.803 37.8549 40.803V40.7786C38.3154 40.0967 39.3517 38.5501 40.8916 35.9806C42.8777 32.6682 44.7919 28.5277 44.7919 28.5277C44.7919 28.5277 44.9646 29.5384 45.5546 31.219C45.9001 32.2054 46.6197 33.2892 47.1953 34.3365C46.7348 34.8845 46.447 35.189 46.447 35.189C46.447 35.189 46.447 35.189 46.4613 35.2012C46.0871 35.6152 45.6842 36.0658 45.238 36.5042C43.6693 38.0873 41.7983 39.9018 41.5393 40.4255C41.237 41.0466 41.309 41.4971 41.8847 41.8625C42.302 42.1304 43.0504 42.1669 43.8132 42.1304C45.2236 42.0451 46.2167 41.7529 46.706 41.5702C47.4688 41.3388 48.3611 40.9857 49.1958 40.462C50.7358 39.5 51.6713 38.1239 51.5849 36.3094C51.5417 35.3108 51.1532 34.3122 50.6782 33.3745C50.8221 33.204 50.9517 33.0335 51.0956 32.863C53.5278 29.8551 55.4132 26.5549 55.4132 26.5549C55.4132 26.5549 55.5859 27.5656 56.176 29.2462C56.4638 30.0986 57.0539 31.0242 57.572 31.9253C55.2837 33.4963 53.8733 35.3229 53.3695 36.5164C52.4628 38.7328 53.168 39.7313 54.5065 39.9627C55.111 40.0723 55.9745 39.8288 56.6077 39.5974C57.4137 39.3782 58.3636 39.0007 59.2703 38.4405C60.8102 37.4784 62.2926 36.1389 62.2063 34.3244C62.1631 33.4963 61.904 32.6803 61.5442 31.8888C63.4871 31.2068 65.9914 30.8293 69.1864 31.1459C76.037 31.8279 77.3899 35.4447 77.1308 36.967C76.8718 38.4892 75.4326 39.3173 74.9576 39.573C74.4827 39.8288 74.3244 39.914 74.3675 40.0967C74.4251 40.3646 74.6554 40.3524 75.0584 40.3037C75.6197 40.2185 78.6564 39.0737 78.7859 36.2728C79.0018 32.6925 74.972 28.7834 67.8479 28.82ZM15.0003 43.8962C12.7264 45.9908 9.5601 46.7823 8.19286 46.1126C6.72486 45.3941 7.30055 42.3009 10.0926 40.0845C11.7909 38.7328 13.9785 37.4784 15.4321 36.7112C15.7631 36.5407 16.2524 36.2972 16.8425 35.9927C16.9432 35.944 17.0008 35.9197 17.0008 35.9197C17.1159 35.8588 17.2311 35.7979 17.3462 35.737C18.368 38.9032 17.3894 41.692 15.0003 43.8962ZM31.5512 34.3731C30.7596 36.0049 29.1045 40.1819 28.0971 39.9505C27.2335 39.7557 26.701 36.5895 27.9244 33.4597C28.5432 31.8888 29.8529 30.0134 30.6157 29.2827C31.8534 28.1136 33.2206 27.7239 33.5517 28.1989C33.969 28.82 32.0405 33.3501 31.5512 34.3731ZM45.2092 39.9018C44.8782 40.048 44.5616 40.1454 44.4177 40.0723C44.3169 40.0236 44.5616 39.8288 44.5616 39.8288C44.5616 39.8288 46.2742 38.27 46.9507 37.5637C47.3393 37.1496 47.7998 36.6625 48.2891 36.1145V36.2728C48.2891 38.136 46.1591 39.3904 45.2092 39.9018ZM55.7442 37.8681C55.4996 37.722 55.5427 37.2349 56.3631 35.7126C56.6797 35.1159 57.4281 34.1173 58.709 33.1553C58.8529 33.545 58.9537 33.9225 58.9393 34.2756C58.9249 36.626 56.9388 37.5028 55.7442 37.8681Z" fill="#354C6C"/>
</svg>
