<svg width="88" height="50" viewBox="0 0 88 50" fill="none" xmlns="http://www.w3.org/2000/svg">
<g clip-path="url(#clip0_151_27)">
<path d="M43.7616 0C32.0918 0 24.7982 5.54112 21.8808 16.6234C26.2569 11.0822 31.3625 9.00433 37.1973 10.3896C40.5265 11.18 42.906 13.4736 45.5398 16.0125C49.8303 20.1483 54.7961 24.9351 65.6424 24.9351C77.3121 24.9351 84.6057 19.3939 87.5232 8.31169C83.147 13.8528 78.0415 15.9307 72.2066 14.5455C68.8775 13.7551 66.498 11.4615 63.8642 8.9226C59.5736 4.78676 54.6078 0 43.7616 0ZM21.8808 24.9351C10.211 24.9351 2.91744 30.4762 0 41.5584C4.37616 36.0173 9.48168 33.9394 15.3166 35.3247C18.6457 36.1151 21.0252 38.4086 23.659 40.9475C27.9495 45.0834 32.9154 49.8701 43.7616 49.8701C55.4313 49.8701 62.7249 44.329 65.6424 33.2467C61.2662 38.7879 56.1607 40.8658 50.3258 39.4805C46.9967 38.6901 44.6172 36.3966 41.9834 33.8577C37.6928 29.7218 32.727 24.9351 21.8808 24.9351Z" fill="#354C6C"/>
</g>
<defs>
<clipPath id="clip0_151_27">
<rect width="87.5232" height="50" fill="white"/>
</clipPath>
</defs>
</svg>
