<svg width="41" height="33" viewBox="0 0 41 33" fill="none" xmlns="http://www.w3.org/2000/svg">
<path d="M36 4C34.83 4.6945 32.4825 5.641 31.1025 5.914C31.062 5.9245 31.029 5.938 30.99 5.9485C29.7705 4.7455 28.0995 4 26.25 4C22.5225 4 19.5 7.0225 19.5 10.75C19.5 10.9465 19.4835 11.308 19.5 11.5C14.4705 11.5 10.6425 8.866 7.8975 5.5C7.599 6.25 7.4685 7.435 7.4685 8.548C7.4685 10.6495 9.111 12.7135 11.6685 13.993C11.1975 14.1145 10.6785 14.2015 10.1385 14.2015C9.267 14.2015 8.3445 13.972 7.5 13.276C7.5 13.3015 7.5 13.3255 7.5 13.3525C7.5 16.2895 10.617 18.289 13.389 18.8455C12.8265 19.177 11.6925 19.21 11.139 19.21C10.749 19.21 9.369 19.0315 9 18.9625C9.771 21.37 12.552 22.723 15.2025 22.771C13.1295 24.397 11.691 25 7.446 25H6C8.682 26.719 12.0975 28.0015 15.5205 28.0015C26.6655 28.0015 33 19.507 33 11.5C33 11.371 32.997 11.101 32.9925 10.8295C32.9925 10.8025 33 10.777 33 10.75C33 10.7095 32.988 10.6705 32.988 10.63C32.9835 10.426 32.979 10.2355 32.9745 10.1365C34.1595 9.2815 35.187 8.215 36 7C34.9125 7.483 33.7455 7.807 32.52 7.954C33.771 7.204 35.5485 5.416 36 4ZM30 11.5C30 17.62 25.5645 24.0985 17.301 24.9145C18.42 24.121 19.5 22.9945 19.5 22.9945C19.5 22.9945 15 19.0015 14.6625 13.7845C16.215 14.2585 17.832 14.5 19.5 14.5H22.5V10.75C22.5 10.7485 22.5 10.7485 22.5 10.7485C22.503 8.6785 24.18 7.0015 26.25 7.0015C28.3215 7.0015 30 8.68 30 10.7515C30 10.7515 30 11.3815 30 11.5Z" fill="#06B6D4"/>
</svg>
